<?xml version="1.0" standalone="no"?>
<!DOCTYPE svg PUBLIC "-//W3C//DTD SVG 20010904//EN"
 "http://www.w3.org/TR/2001/REC-SVG-20010904/DTD/svg10.dtd">
<svg version="1.0" xmlns="http://www.w3.org/2000/svg"
 width="700.000000pt" height="700.000000pt" viewBox="0 0 700.000000 700.000000"
 preserveAspectRatio="xMidYMid meet">
<metadata>
Created by potrace 1.11, written by Peter Selinger 2001-2013
</metadata>
<g transform="translate(0.000000,700.000000) scale(0.100000,-0.100000)"
fill="#000000" stroke="none">
<path d="M3298 6996 c-1 -2 -45 -6 -97 -10 -51 -3 -96 -8 -100 -10 -3 -2 -40
-7 -80 -10 -41 -4 -78 -9 -81 -11 -3 -2 -24 -6 -46 -9 -51 -8 -81 -14 -102
-20 -9 -3 -33 -8 -52 -11 -98 -16 -424 -115 -527 -161 -18 -8 -48 -21 -67 -29
-19 -8 -37 -15 -40 -15 -10 0 -296 -144 -351 -177 -318 -189 -527 -353 -766
-598 -371 -382 -641 -828 -810 -1336 -26 -81 -51 -158 -53 -170 -3 -13 -13
-51 -21 -84 -9 -33 -18 -71 -21 -85 -2 -14 -9 -45 -14 -70 -12 -54 -36 -205
-45 -275 -29 -245 -27 -638 4 -860 18 -127 22 -149 43 -250 26 -132 23 -119
48 -209 182 -675 568 -1292 1090 -1741 30 -26 66 -57 80 -69 32 -28 203 -153
255 -187 75 -49 180 -115 225 -141 60 -34 305 -158 313 -158 4 0 30 -11 59
-24 187 -85 508 -180 743 -220 17 -3 44 -8 60 -11 17 -3 53 -8 80 -11 28 -3
55 -7 62 -9 55 -18 533 -27 710 -12 117 9 150 14 308 42 177 32 177 32 285 61
593 159 1120 458 1553 881 576 563 932 1284 1033 2098 25 199 24 699 -1 820
-2 11 -7 39 -9 63 -62 508 -289 1089 -599 1527 -63 89 -171 231 -186 245 -4 3
-35 38 -70 78 -547 625 -1365 1051 -2201 1147 -30 4 -68 8 -85 11 -35 5 -521
14 -527 10z m442 -590 c121 -12 174 -19 275 -37 793 -144 1482 -600 1924
-1274 94 -143 209 -363 260 -495 18 -47 36 -92 40 -100 7 -13 25 -70 80 -255
21 -70 61 -277 76 -390 24 -195 24 -541 0 -715 -29 -200 -68 -373 -124 -545
-35 -109 -89 -245 -103 -263 -6 -6 -8 -12 -4 -12 3 0 -18 -49 -48 -109 -266
-529 -673 -960 -1183 -1250 -361 -205 -806 -340 -1213 -368 -170 -12 -460 -6
-560 11 -14 2 -49 7 -79 10 -69 8 -179 30 -301 61 -810 204 -1510 767 -1884
1515 -103 206 -194 454 -231 630 -2 8 -8 35 -14 60 -5 25 -13 61 -16 80 -4 19
-8 42 -10 50 -2 8 -6 40 -10 70 -4 30 -9 66 -11 80 -23 138 -22 543 1 700 101
676 371 1234 815 1681 83 85 119 118 230 213 59 51 225 171 292 211 182 111
315 178 493 248 143 57 390 129 502 147 34 6 68 12 75 15 21 7 174 25 273 31
50 4 91 7 92 8 5 4 315 -3 363 -8z"/>
<path d="M3355 6240 l-30 -5 0 -1249 0 -1248 -37 -42 c-130 -143 -89 -367 84
-457 34 -18 60 -23 123 -23 92 -1 148 20 205 75 l35 34 960 0 960 0 0 175 0
175 -962 0 -962 0 -28 32 -28 31 0 1247 c0 989 -3 1249 -12 1252 -18 7 -271 9
-308 3z"/>
</g>
</svg>
